<?xml version="1.0" encoding="UTF-8"?>
<svg id="Layer_1" xmlns="http://www.w3.org/2000/svg" version="1.1" xmlns:xlink="http://www.w3.org/1999/xlink" viewBox="0 0 100 100">
  <!-- Generator: Adobe Illustrator 29.2.1, SVG Export Plug-In . SVG Version: 2.1.0 Build 116)  -->
  <defs>
    <style>
      .st0 {
        fill: #aa6100;
      }

      .st1 {
        fill: #fff;
      }

      .st2 {
        fill: #6dc82a;
      }

      .st3, .st4 {
        fill: none;
      }

      .st5 {
        fill: #4e901e;
      }

      .st4 {
        stroke: #000;
        stroke-linecap: round;
        stroke-linejoin: round;
      }

      .st6 {
        fill: #5eac24;
      }

      .st7 {
        fill: #91dc5a;
      }

      .st8 {
        fill: #cc7400;
      }
    </style>
  </defs>
  <circle class="st1" cx="50" cy="50" r="48.9"/>
  <g>
    <path class="st3" d="M47,47.9c0,.6.2,1,.7,1.2h.1c0-.8.2-1.6.3-2.4-.8.1-1.1.6-1.1,1.2Z"/>
    <path class="st3" d="M38.1,46.8c-.9,0-1.5.9-1.7,2.5h3.2c0-1.7-.6-2.5-1.5-2.5Z"/>
    <path class="st3" d="M57.2,50.3h0c0-2.3-.7-3.5-1.8-3.5s-1.1.4-1.6,1.1v5.5c.4.3,1,.5,1.4.5,1.2,0,2-1.4,2-3.6Z"/>
    <path class="st3" d="M69.1,46.8c-1.2,0-1.8,1.4-1.8,3.5s.8,3.5,1.9,3.5,1.9-1.4,1.9-3.5h0c0-2.1-.7-3.5-1.9-3.5Z"/>
    <path class="st3" d="M51.5,55.8s0,0,0,0c.2,0,.4,0,.6.1v-8.3c-.5,2.7-.7,5.5-.7,8.2Z"/>
    <path class="st2" d="M46.1,38.5l1.8,1.7c.1.1.2.2.4.2-.1,0-.3,0-.4-.2l-1.8-1.7-1.3-1.3h-6.1c-.4,0-.8-.3-.8-.8s.3-.8.8-.8h4.5l-3.7-3.6h-6.4c-.4,0-.8-.3-.8-.8s.3-.8.8-.8h4.8l-6.5-6.3c-.3-.3-.3-.8,0-1.1.3-.3.8-.3,1.1,0l6.2,6-.7-3.8c0-.4.2-.8.6-.9.4,0,.8.2.9.6l1.1,5.9,3.4,3.2-.8-4.2c0-.4.2-.8.6-.9.4,0,.8.2.9.6l1.2,6.3.8.8c.3-1,.7-2,1.1-2.9.5-1.1,1-2.1,1.5-3.1-3.7-6.2-9.2-10-16.4-11.3-2.2-.4-3.7-.4-4.6,0s-1.2,1.5-.9,3.4c2.1,11.2,7.9,18.2,17.5,21.1,0,0,0,0,0,0,.3-1.9.8-3.7,1.2-5.4Z"/>
    <path class="st2" d="M49.1,39.9c0-.3,0-.5-.2-.7.2.2.2.5.2.7Z"/>
    <path class="st2" d="M46.9,37.1l2.1,2s0,0,0,0l-2.1-2h0s0,0,0,0h0c0,0,0,0,0,0Z"/>
    <path class="st6" d="M49.6,39.6c.5-1.7,1-3.3,1.7-4.8-.6-1.4-1.3-2.8-2-4-.5,1-1,2-1.5,3.1-.4.9-.8,1.9-1.1,2.9h0s.2.2.2.2h0c0,0,2.1,2.1,2.1,2.1,0,0,0,0,0,0h0s0,0,0,0c.2.2.2.5.2.7,0,.1,0,.2-.2.3-.2.2-.3.2-.5.2s-.1,0-.2,0c-.1,0-.3,0-.4-.2l-1.8-1.7c-.5,1.7-.9,3.5-1.2,5.4,0,0,0,0,0,0,1.1.3,2.3.6,3.6.9.3-1.5.6-3,.9-4.3,0-.3.2-.6.2-.9Z"/>
    <path class="st7" d="M49.1,52.6c0-.7-.3-1-.8-1.3l-.6-.4c0,.9-.1,1.9-.2,2.8,0,0,.2,0,.2,0,.7,0,1.4-.5,1.4-1.2Z"/>
    <path class="st7" d="M49.7,55.6c.6,0,1.3.2,1.8.2,0-2.7.2-5.5.7-8.2v-2h.4s0,0,0-.1c.5,0,1-.2,1.5-.2,11.7-2.2,18.7-9.5,21-21.9.4-1.9,0-3.1-.9-3.4-.6-.3-1.6-.3-2.8-.2-.6,0-1.2.1-1.9.2-8.6,1.6-14.7,6.6-18.3,15-.6,1.5-1.2,3.1-1.7,4.8,0,.3-.2.6-.2.9-.4,1.4-.7,2.8-.9,4.3,0,.2,0,.3,0,.5,1.7,0,1.7.2,2.2.5l-.2,1.3c-.5-.3-1.3-.5-1.9-.5s-.2,0-.3,0c-.1.8-.2,1.6-.3,2.4l1.5.8c.9.5,1.5,1.5,1.5,2.6s-1.2,2.5-2.9,2.5-.3,0-.5,0c0,.2,0,.5,0,.7,0,0,0,0,.1,0,.7-.2,1.6-.2,2.2-.2ZM52,40.9l5-4.8,1.2-6.3c0-.4.5-.7.9-.6.4,0,.7.5.6.9l-.8,4.2,3.4-3.2,1.1-5.9c0-.4.5-.7.9-.6.4,0,.7.5.6.9l-.7,3.8,6.2-6c.3-.3.8-.3,1.1,0,.3.3.3.8,0,1.1l-6.5,6.3h4.8c.4,0,.8.3.8.8s-.3.8-.8.8h-6.4l-3.7,3.6h4.5c.4,0,.8.3.8.8s-.3.8-.8.8h-6.1l-4.9,4.8c-.1.1-.3.2-.5.2s-.4,0-.6-.2c-.3-.3-.3-.8,0-1.1Z"/>
    <path class="st5" d="M44.6,29.8c0-.4-.5-.7-.9-.6-.4,0-.7.5-.6.9l.8,4.2-3.4-3.2-1.1-5.9c0-.4-.5-.7-.9-.6-.4,0-.7.5-.6.9l.7,3.8-6.2-6c-.3-.3-.8-.3-1.1,0-.3.3-.3.8,0,1.1l6.5,6.3h-4.8c-.4,0-.8.3-.8.8s.3.8.8.8h6.4l3.7,3.6h-4.5c-.4,0-.8.3-.8.8s.3.8.8.8h6.1l1.3,1.3,1.8,1.7c.1.1.2.2.4.2,0,0,.1,0,.2,0,.2,0,.4,0,.5-.2,0,0,.1-.2.2-.3,0-.3,0-.5-.2-.7,0,0,0,0,0,0h0s-2.1-2-2.1-2h0s0,0,0,0l-.2-.2h0s-.8-.8-.8-.8l-1.2-6.3Z"/>
    <path class="st6" d="M52.5,42.2c.2,0,.4,0,.5-.2l4.9-4.8h6.1c.4,0,.8-.3.8-.8s-.3-.8-.8-.8h-4.5l3.7-3.6h6.4c.4,0,.8-.3.8-.8s-.3-.8-.8-.8h-4.8l6.5-6.3c.3-.3.3-.8,0-1.1-.3-.3-.8-.3-1.1,0l-6.2,6,.7-3.8c0-.4-.2-.8-.6-.9-.4,0-.8.2-.9.6l-1.1,5.9-3.4,3.2.8-4.2c0-.4-.2-.8-.6-.9-.4,0-.8.2-.9.6l-1.2,6.3-5,4.8c-.3.3-.3.8,0,1.1.2.2.4.2.6.2Z"/>
    <path class="st0" d="M45.1,77.6c-.2-.3-.3-.5-.4-.8-.1-.2-.2-.4-.2-.6-.4-1.1-.6-1.8-.6-3.8s.4-3.7,1.2-5.3c.2-.5.6-1,.9-1.5l.2-.2c.4-.5.8-1,1.3-1.5,2.4-2.3,5.3-3.6,8.6-3.6s2.3.2,3.3.5c0,0,0,0,0,0-.2-.2-.3-.4-.5-.6-.3-.3-.5-.6-.8-.9-1.3-1.3-2.8-2.2-4.4-2.8v2.4h-1.6v-2.9c-.2,0-.4,0-.6-.1,0,0,0,0,0,0-.6,0-1.3-.2-1.8-.2s-1.5,0-2.2.2c0,0,0,0-.1,0-2.3.4-4.4,1.5-6.2,3.3-1.1,1.1-1.9,2.3-2.5,3.6h-1.2c-2.5,0-4.7.9-6.4,2.7-1.1,1.1-1.8,2.3-2.2,3.6-.6-.3-1.3-.5-2.1-.5-1.3,0-2.5.5-3.4,1.4-.9.9-1.4,2.1-1.4,3.4s.5,2.5,1.4,3.4c1,.9,2.1,1.4,3.4,1.4s2.4-.4,3.3-1.3c.3.4.7.9,1.1,1.3,1.8,1.8,3.9,2.7,6.4,2.7s4.7-.9,6.4-2.7c.6.3,1.2.6,1.9.8-.2-.2-.3-.5-.5-.7-.1-.2-.2-.4-.3-.6Z"/>
    <path class="st8" d="M76.1,70c-1-1-2.1-1.4-3.5-1.4s-1.8.2-2.5.7c-.4-1.5-1.2-2.9-2.4-4.2-1.8-1.8-4-2.7-6.5-2.7h-.7c-.2-.5-.5-1-.8-1.5,0,0,0,0-.1,0-1.1-.3-2.2-.5-3.3-.5-3.4,0-6.2,1.2-8.6,3.6-.5.5-.9,1-1.3,1.5l-.2.2c-.3.5-.7,1-.9,1.5-.8,1.6-1.2,3.4-1.2,5.3s.2,2.6.6,3.8c0,.2.1.4.2.6.1.3.2.5.4.8.1.2.2.4.3.6.2.3.3.5.5.7,0,0,0,0,0,0,1.1.3,2.2.5,3.5.5,2,0,4-.4,5.6-1.3,1.7,1.5,3.8,2.3,6.2,2.3s4.8-.9,6.5-2.7c.5-.4.9-.9,1.2-1.4,0,0,.2.2.2.3.9,1,2.1,1.4,3.5,1.4s2.5-.5,3.5-1.4c1-1,1.4-2.1,1.4-3.6s-.5-2.5-1.4-3.5v.3ZM48.5,68.5v.2h-.4v-.4h.4v.2ZM51.1,64.2c0-.2,0-.4.3-.6,0-.3.4-.3.6-.3s.4.1.6.3c.3.1.3.4.3.6s-.1.4-.3.6c0,.3-.4.3-.6.3s-.4,0-.6-.3c-.3,0-.3-.4-.3-.6ZM55.3,70.7c-.4.4-.8.6-1.4.6s-1-.2-1.4-.6-.5-.5-.5-.8v-.6c0-.6.2-1,.6-1.4.4-.3.9-.5,1.4-.5h0c.6-.1,1,0,1.4.5.4.4.6.8.6,1.4s-.2,1-.6,1.4ZM60.4,67.4c0-.2,0-.4.3-.6,0-.3.4-.3.6-.3h.2c.2,0,.4.1.5.2.3,0,.3.4.3.6s0,.4-.3.6-.2.2-.4.2h-.2v.2c-.3,0-.5,0-.7-.3-.3,0-.3-.4-.3-.6ZM64.1,75.8c-.4.4-.8.6-1.4.6s-1-.2-1.4-.6-.6-.8-.6-1.4.2-1,.6-1.4c.4-.4.9-.6,1.4-.6s1,.2,1.4.6c.4.4.6.8.6,1.4s-.2,1-.6,1.4ZM70,72.1c0,.3-.4.3-.6.3s-.4-.1-.6-.3c-.3,0-.3-.4-.3-.6s.1-.4.3-.6c.1-.3.4-.3.6-.3s.4.1.6.3c.3.2.3.4.3.7,0,.2,0,.3-.3.5ZM73.2,75.6v.2h-.4v-.4h.4v.2Z"/>
    <path class="st0" d="M72.2,61.4v.2h.4v-.4h-.4v.2Z"/>
    <path class="st0" d="M64.8,59.2c.6,0,1-.2,1.4-.6.4-.4.6-.8.6-1.4s-.2-1-.6-1.4c-.4-.4-.8-.6-1.4-.6s-1,.2-1.4.6-.6.8-.6,1.4.2,1,.6,1.4c.4.4.8.6,1.4.6Z"/>
    <path class="st0" d="M70.3,61.5c-.2,0-.5,0-.6.3-.2.2-.3.4-.3.6s0,.5.3.6c.2.2.4.3.6.3s.5,0,.6-.3c.2-.2.3-.4.3-.6s0-.5-.3-.6c-.2-.2-.4-.3-.6-.3Z"/>
    <path class="st0" d="M61.3,68.3v-.2h.3c.2,0,.3,0,.4-.2.2-.2.3-.4.3-.6s0-.5-.3-.6c0,0-.3-.2-.5-.2h-.2c-.2,0-.5,0-.6.3-.2.2-.3.4-.3.6s0,.5.3.6c.2.2.4.3.6.3Z"/>
    <path class="st0" d="M53.9,67.3h0c-.5.1-1,.3-1.4.6-.4.4-.6.8-.6,1.4v.6c0,.3.2.5.5.8s.8.6,1.4.6,1-.2,1.4-.6c.4-.4.6-.8.6-1.4s-.2-1-.6-1.4c-.4-.4-.8-.6-1.4-.6Z"/>
    <path class="st0" d="M52.6,64.8c.2-.2.3-.4.3-.6s0-.5-.3-.6c-.2-.2-.4-.3-.6-.3s-.5,0-.6.3c-.2.2-.3.4-.3.6s0,.5.3.6c.2.2.4.3.6.3s.5,0,.6-.3Z"/>
    <path class="st0" d="M62.7,72.4c-.5,0-1,.2-1.4.6-.4.4-.6.8-.6,1.4s.2,1,.6,1.4.8.6,1.4.6,1-.2,1.4-.6c.4-.4.6-.8.6-1.4s-.2-1-.6-1.4c-.4-.4-.8-.6-1.4-.6Z"/>
    <path class="st0" d="M72.8,75.4v.4h.4v-.4h-.4Z"/>
    <path class="st0" d="M70,70.9c-.2-.2-.4-.3-.6-.3s-.5,0-.6.3c-.2.2-.3.4-.3.6s0,.5.3.6c.2.2.4.3.6.3s.5,0,.6-.3c.2-.2.2-.3.3-.5,0-.3,0-.5-.3-.7Z"/>
    <path class="st0" d="M31.5,55v-.4c-.2,0-.3.2-.5.4-.4.4-.6.8-.6,1.4s.2,1,.6,1.4c.4.4.8.6,1.4.6s1-.2,1.4-.6c.4-.4.6-.8.6-1.4s-.2-1-.6-1.4c-.2-.2-.4-.4-.7-.5v.5h-1.6Z"/>
    <path class="st0" d="M29.1,60.2c-.2,0-.5,0-.6.3-.2.2-.3.4-.3.6s0,.5.3.6c.2.2.4.3.6.3s.5,0,.6-.3c.2-.2.3-.4.3-.6s0-.5-.3-.6c-.2-.2-.4-.3-.6-.3Z"/>
    <path class="st0" d="M48.1,68.3v.4h.4v-.4h-.4Z"/>
    <polygon points="13.4 41.6 13.4 55 15 55 15 41.2 13.4 41.5 13.4 41.6"/>
    <line class="st4" x1="17" y1="45.8" x2="17" y2="45.7"/>
    <polygon points="17 54.8 18.6 54.8 18.6 45.4 17 45.8 17 54.8"/>
    <path d="M17.9,41.3c-.6,0-1.1.5-1.1,1.1s.6,1.1,1.1,1.1,1-.5,1-1.1-.4-1.1-1-1.1Z"/>
    <path d="M25,54.8h0l-.2-1.2c-.3.2-.4.3-1.1.3s-1-.6-1-2.2v-4.8h2.1v-1.2h-2.1v-2.4h-1.1l-.5,2.4h-1.2v1.2h1.1v5c0,2.4,1,3.2,2.2,3.2s1.3,0,1.7-.3Z"/>
    <path d="M26.5,51.9c0,2.4,1,3.2,2.2,3.2s1.3,0,1.7-.3h0l-.2-1.2c-.3.2-.4.3-1.1.3s-1-.6-1-2.2v-4.8h2.1v-1.2h-2.1v-2.4h-1.1l-.5,2.4h-1.2v1.2h1.1v5Z"/>
    <polygon points="31.5 41.5 31.5 41.6 31.5 54.6 31.5 55 33.1 55 33.1 54.5 33.1 41.2 31.5 41.5"/>
    <line class="st4" x1="41" y1="50.5" x2="40.9" y2="50.5"/>
    <path d="M38,45.5c-2.1,0-3.4,1.8-3.4,4.8s1.5,4.8,3.6,4.8,1.8-.3,2.4-.7l-.3-1.2c-.5.4-.5.6-1.8.6s-2.2-1.2-2.2-3.3h4.6l.2-.4c0-2.8-1-4.6-3.1-4.6ZM36.4,49.3c.2-1.6.8-2.5,1.7-2.5s1.5.8,1.5,2.5h-3.2Z"/>
    <path d="M45.2,54.4h0c0,0,0,0,0-.1h0Z"/>
    <path d="M50.8,52.6c0-1.1-.6-2.1-1.5-2.6l-1.5-.8h-.1c-.5-.3-.7-.7-.7-1.3s.3-1,1.1-1.2c0,0,.2,0,.3,0,.6,0,1.4.2,1.9.5l.2-1.3c-.5-.3-.5-.5-2.2-.5,0,0,0,0-.1,0-1.8,0-2.9,1.4-2.9,2.5s.6,2,1.6,2.6l.8.4.6.4c.5.3.8.6.8,1.3s-.7,1.2-1.4,1.2-.2,0-.2,0c-.7,0-1.4-.3-2.1-.7l-.2,1.2c.5.4.9.7,2.2.8.2,0,.3,0,.5,0,1.7,0,2.9-1.4,2.9-2.5Z"/>
    <path d="M52.2,47.6v11.2h1.6v-4.2c.5.5-.5.5,1.6.5s3.5-1.8,3.5-4.9h0c0-3-1.2-4.8-2.9-4.8s-1.6.4-2.2,1.2l-.2-1h-1.4v2ZM53.8,47.9c.5-.7.5-1.1,1.6-1.1s1.8,1.2,1.8,3.4h0c0,2.3-.8,3.7-2,3.7s-1-.2-1.4-.5v-5.5Z"/>
    <path d="M64.9,47.3l.3-1.3c-.3-.3-.3-.5-1.1-.5s-1.4.7-2,1.8l-.2-1.8-1.4.2v9.3h1.6v-6.5c.5-.9,1.1-1.5,1.7-1.5s.9,0,1.1.3Z"/>
    <path d="M69.1,45.5c-2.1,0-3.5,1.9-3.5,4.8h.1c0,2.9,1.4,4.8,3.5,4.8s3.5-1.9,3.5-4.8-1.5-4.8-3.6-4.8ZM69.2,53.8c-1.1,0-1.9-1.4-1.9-3.5s.6-3.5,1.8-3.5,1.9,1.4,1.9,3.5h0c0,2.1-.8,3.5-1.9,3.5Z"/>
    <path d="M78.7,45.6v7.2c-.6.5-1,1-1.8,1s-1.2-.7-1.2-2.6v-5.6h-1.6v5.9c0,2.5,1.2,3.6,2.2,3.6s1.8-.5,2.5-1.1l.2,1h1.4v-9.3h-.1c0-.1-1.6-.1-1.6-.1Z"/>
    <path d="M86.5,53.6c-.3.2-.4.3-1.1.3s-1-.6-1-2.2v-4.8h2.1v-1.2h-2.1v-2.4h-1.1l-.5,2.4h-1.2v1.2h1.1v5c0,2.4,1,3.2,2.2,3.2s1.3,0,1.7-.3h.1l-.2-1.2Z"/>
  </g>
</svg>