<?xml version="1.0" encoding="UTF-8"?>
<svg id="Layer_1" xmlns="http://www.w3.org/2000/svg" version="1.1" xmlns:xlink="http://www.w3.org/1999/xlink" viewBox="0 0 100 100">
  <!-- Generator: Adobe Illustrator 29.2.1, SVG Export Plug-In . SVG Version: 2.1.0 Build 116)  -->
  <defs>
    <style>
      .st0 {
        fill: #aa6100;
      }

      .st1 {
        fill: #fff;
      }

      .st2 {
        fill: #6dc82a;
      }

      .st3 {
        fill: none;
      }

      .st4 {
        fill: #5eac24;
      }

      .st5 {
        fill: #91dc5a;
      }

      .st6 {
        fill: #cc7400;
      }
    </style>
  </defs>
  <circle class="st1" cx="50" cy="50" r="48.9"/>
  <g>
    <path class="st2" d="M46.3,37.8c.4-1.3.9-2.6,1.4-3.8.5-1.1,1-2.1,1.5-3.1-3.7-6.2-9.2-10-16.4-11.3-2.1-.4-3.7-.4-4.6,0-.9.4-1.2,1.5-.9,3.4,2.1,11.1,7.9,18.2,17.5,21.1,0,0,0,0,0,0,.4-2.2.9-4.3,1.5-6.3Z"/>
    <path class="st4" d="M49.5,39.7c.5-1.7,1-3.3,1.7-4.8-.6-1.4-1.3-2.8-2-4-.5,1-1.1,2-1.5,3.1-.5,1.2-1,2.4-1.4,3.8-.6,1.9-1.1,4-1.5,6.3,0,0,0,0,0,0,1.1.3,2.3.6,3.6.9.3-1.5.6-2.9.9-4.3,0-.3.2-.6.2-.9Z"/>
    <path class="st5" d="M51.5,55.5c0-3.3.3-6.6,1.1-10,.5,0,1-.2,1.5-.2,11.7-2.2,18.6-9.5,20.9-21.9.4-1.9,0-3.1-.9-3.4-.6-.3-1.6-.3-2.8-.2-.6,0-1.2.1-1.9.3-8.6,1.6-14.7,6.5-18.3,15-.6,1.5-1.2,3.1-1.7,4.8,0,.3-.2.6-.2.9-.4,1.4-.7,2.8-.9,4.3-.6,3.2-.9,6.8-1,10.6.7-.1,1.5-.2,2.2-.2s1.3,0,1.9.2Z"/>
    <g>
      <path class="st3" d="M45.7,78.1s0,0,0,0c0,0,0,0,0,0,0,0,0,0,0,0,0,0,0,0,0,0Z"/>
      <path class="st0" d="M45.7,78.1s0,0,0,0c0,0,0,0,0,0-.1-.2-.2-.4-.3-.6-.1-.3-.3-.5-.4-.8,0-.2-.1-.4-.2-.6-.4-1.2-.6-2.4-.6-3.7,0-1.9.4-3.7,1.2-5.2.3-.5.6-1,.9-1.5,0,0,.1-.1.2-.2.4-.5.8-1,1.3-1.5,2.3-2.3,5.2-3.5,8.5-3.5s2.3.2,3.4.5c0,0,0,0,0,0,0,0,0,0,0,0,0,0,0,0,0,0,0-.1-.2-.2-.2-.3-.2-.2-.3-.4-.5-.6-.3-.3-.5-.6-.8-.9-1.9-1.9-4.1-3-6.6-3.4-.6,0-1.3-.2-1.9-.2s-1.5,0-2.2.2c-2.4.4-4.5,1.5-6.3,3.3-1.1,1.1-1.9,2.3-2.5,3.6-.4,0-.8,0-1.2,0-2.5,0-4.7.9-6.4,2.7-1.1,1.1-1.8,2.3-2.2,3.6-.6-.3-1.3-.5-2.1-.5-1.3,0-2.5.5-3.4,1.4-.9.9-1.4,2.1-1.4,3.4s.5,2.5,1.4,3.4c1,.9,2.1,1.4,3.4,1.4s2.4-.4,3.3-1.3c.3.4.7.9,1.1,1.3,1.8,1.8,3.9,2.7,6.4,2.7s4.7-.9,6.4-2.7c.7.4,1.5.7,2.3,1,0,0,0,0,0,0,0,0,0,0,0,0-.2-.3-.3-.6-.5-.8,0,0,0,0,0,0Z"/>
      <path class="st6" d="M75.9,69.7c-1-1-2.1-1.4-3.4-1.4s-1.8.2-2.5.7c-.4-1.5-1.2-2.9-2.4-4.1-1.8-1.8-3.9-2.7-6.4-2.7s-.5,0-.7,0c-.2-.5-.5-1-.8-1.5,0,0,0,0,0,0,0,0,0,0,0,0-1.1-.3-2.2-.5-3.4-.5-3.3,0-6.1,1.2-8.5,3.5-.5.5-.9,1-1.3,1.5,0,0-.1.1-.2.2-.3.5-.7,1-.9,1.5-.8,1.6-1.2,3.3-1.2,5.2s.2,2.6.6,3.7c0,.2.1.4.2.6.1.3.2.5.4.8.1.2.2.4.3.6,0,0,0,0,0,0,.2.3.3.6.5.8,1.1.3,2.2.5,3.4.5,2,0,3.9-.4,5.5-1.3,1.7,1.5,3.7,2.3,6.1,2.3s4.7-.9,6.4-2.7c.5-.4.9-.9,1.2-1.4,0,0,.2.2.2.3.9,1,2.1,1.4,3.4,1.4s2.5-.5,3.4-1.4c1-1,1.4-2.1,1.4-3.5s-.5-2.5-1.4-3.4Z"/>
    </g>
    <g>
      <path class="st0" d="M72.2,61.2c0,0,0,.1,0,.2s0,.2,0,.2c0,0,.1,0,.2,0s.2,0,.2,0c0,0,0-.1,0-.2s0-.2,0-.2c0,0-.1,0-.2,0s-.2,0-.2,0Z"/>
      <path class="st0" d="M63.4,55.8c-.4.4-.6.8-.6,1.4s.2,1,.6,1.4c.4.4.8.6,1.4.6s1-.2,1.4-.6c.4-.4.6-.8.6-1.4s-.2-1-.6-1.4c-.4-.4-.8-.6-1.4-.6s-1,.2-1.4.6Z"/>
      <path class="st0" d="M69.7,61.8c-.2.2-.3.4-.3.6s0,.5.3.6c.2.2.4.3.6.3s.5,0,.6-.3c.2-.2.3-.4.3-.6s0-.5-.3-.6c-.2-.2-.4-.3-.6-.3s-.5,0-.6.3Z"/>
      <path class="st0" d="M61.4,68.1c0,0,.1,0,.2,0,.2,0,.3-.1.4-.2.2-.2.3-.4.3-.6s0-.5-.3-.6c-.1-.1-.3-.2-.5-.2,0,0-.1,0-.2,0-.2,0-.5,0-.6.3-.2.2-.3.4-.3.6s0,.5.3.6c.2.2.4.3.6.3Z"/>
      <path class="st0" d="M54,67.4c-.5,0-1,.2-1.4.5,0,0,0,0,0,0-.4.4-.6.8-.6,1.4s0,.4,0,.6c0,.3.2.5.5.8.4.4.8.6,1.4.6s1-.2,1.4-.6c.4-.4.6-.8.6-1.4s-.2-1-.6-1.4c-.4-.4-.8-.6-1.4-.6Z"/>
      <path class="st0" d="M52.9,64.2c0-.2,0-.5-.3-.6-.2-.2-.4-.3-.6-.3s-.5,0-.6.3c-.2.2-.3.4-.3.6s0,.5.3.6c.2.2.4.3.6.3s.5,0,.6-.3c.2-.2.3-.4.3-.6Z"/>
      <path class="st0" d="M62.7,72.4c-.5,0-1,.2-1.4.6-.4.4-.6.8-.6,1.4s.2,1,.6,1.4c.4.4.8.6,1.4.6s1-.2,1.4-.6c.4-.4.6-.8.6-1.4s-.2-1-.6-1.4c-.4-.4-.8-.6-1.4-.6Z"/>
      <path class="st0" d="M73,75.4c0,0-.2,0-.2,0,0,0,0,.1,0,.2s0,.2,0,.2c0,0,.1,0,.2,0s.2,0,.2,0,0-.1,0-.2,0-.2,0-.2c0,0-.1,0-.2,0Z"/>
      <path class="st0" d="M69.4,70.6c-.2,0-.5,0-.6.3-.2.2-.3.4-.3.6s0,.5.3.6c.2.2.4.3.6.3s.5,0,.6-.3c.2-.2.2-.3.3-.5h0c0-.3,0-.5-.3-.7-.2-.2-.4-.3-.6-.3Z"/>
      <path class="st0" d="M32.4,58.4c.5,0,1-.2,1.4-.6.4-.4.6-.8.6-1.4s-.2-1-.6-1.4c-.4-.4-.8-.6-1.4-.6s-1,.2-1.4.6c-.4.4-.6.8-.6,1.4s.2,1,.6,1.4c.4.4.8.6,1.4.6Z"/>
      <path class="st0" d="M29.7,61.7c.2-.2.3-.4.3-.6s0-.5-.3-.6c-.2-.2-.4-.3-.6-.3s-.5,0-.6.3c-.2.2-.3.4-.3.6s0,.5.3.6c.2.2.4.3.6.3s.5,0,.6-.3Z"/>
      <path class="st0" d="M48.5,68.3c0,0-.1,0-.2,0s-.2,0-.2,0c0,0,0,.1,0,.2s0,.2,0,.2c0,0,.1,0,.2,0s.2,0,.2,0c0,0,0-.1,0-.2s0-.2,0-.2Z"/>
    </g>
    <g>
      <path d="M13.4,41.5l1.6-.3v13.8h-1.6v-13.4Z"/>
      <path d="M16.8,42.4c0-.6.5-1.1,1.1-1.1s1,.5,1,1.1-.5,1.1-1,1.1-1.1-.5-1.1-1.1ZM17,45.8l1.6-.4v9.4h-1.6v-9.1Z"/>
      <path d="M25,54.8c-.4.2-1.2.3-1.7.3-1.2,0-2.2-.8-2.2-3.2v-5h-1.1v-1.2h1.2l.5-2.4h1.1v2.4h2.1v1.2h-2.1v4.8c0,1.6.3,2.2,1,2.2s.8-.1,1.1-.3l.2,1.2Z"/>
      <path d="M30.4,54.8c-.4.2-1.2.3-1.7.3-1.2,0-2.2-.8-2.2-3.2v-5h-1.1v-1.2h1.2l.5-2.4h1.1v2.4h2.1v1.2h-2.1v4.8c0,1.6.3,2.2,1,2.2s.8-.1,1.1-.3l.2,1.2Z"/>
      <path d="M31.5,41.5l1.6-.3v13.8h-1.6v-13.4Z"/>
      <path d="M41,50.5h-4.7c0,2.1.9,3.3,2.2,3.3s1.3-.2,1.8-.6l.3,1.2c-.6.4-1.5.7-2.4.7-2.1,0-3.6-1.8-3.6-4.8s1.3-4.8,3.4-4.8,3.1,1.8,3.1,4.6l-.2.4ZM36.4,49.3h3.2c0-1.7-.6-2.5-1.5-2.5s-1.5.9-1.7,2.5Z"/>
      <path d="M45.2,54.4l.2-1.3c.7.4,1.6.7,2.3.7s1.4-.5,1.4-1.2-.3-1-.8-1.3l-1.4-.8c-1-.6-1.6-1.5-1.6-2.6s1.1-2.5,2.9-2.5,1.8.2,2.3.5l-.2,1.3c-.5-.3-1.3-.5-1.9-.5-1,0-1.4.6-1.4,1.2s.2,1,.7,1.2l1.6.9c.9.5,1.5,1.5,1.5,2.6s-1.2,2.5-2.9,2.5-2.1-.3-2.7-.8Z"/>
      <path d="M58.9,50.2c0,3.1-1.4,4.9-3.5,4.9s-1.1,0-1.6-.5v4.2h-1.6v-13.2h1.4l.2,1c.6-.8,1.3-1.2,2.2-1.2,1.7,0,2.9,1.8,2.9,4.7ZM57.2,50.2c0-2.2-.7-3.4-1.8-3.4s-1.1.4-1.6,1.1v5.5c.4.3,1,.5,1.4.5,1.2,0,2-1.4,2-3.6Z"/>
      <path d="M65.2,46l-.3,1.3h0c-.2-.2-.7-.3-1.1-.3-.6,0-1.2.6-1.7,1.5v6.5h-1.6v-9.3l1.4-.2.2,1.8c.6-1.1,1.2-1.8,2-1.8s.8.2,1.1.5Z"/>
      <path d="M65.6,50.3c0-2.9,1.4-4.8,3.5-4.8s3.6,1.9,3.6,4.8-1.4,4.8-3.5,4.8-3.5-1.9-3.5-4.8ZM71,50.3c0-2.1-.7-3.5-1.9-3.5s-1.8,1.4-1.8,3.5.8,3.5,1.9,3.5,1.9-1.4,1.9-3.5Z"/>
      <path d="M80.4,45.7v9.3h-1.4l-.2-1c-.7.6-1.5,1.1-2.5,1.1s-2.2-1.1-2.2-3.6v-5.9h1.6v5.6c0,1.9.4,2.6,1.2,2.6s1.2-.5,1.8-1v-7.2h1.6Z"/>
      <path d="M86.6,54.8c-.4.2-1.2.3-1.7.3-1.2,0-2.2-.8-2.2-3.2v-5h-1.1v-1.2h1.2l.5-2.4h1.1v2.4h2.1v1.2h-2.1v4.8c0,1.6.3,2.2,1,2.2s.8-.1,1.1-.3l.2,1.2Z"/>
    </g>
  </g>
</svg>