<?xml version="1.0" encoding="UTF-8"?>
<svg id="Layer_1" xmlns="http://www.w3.org/2000/svg" version="1.1" viewBox="0 0 97.9 97.9">
  <!-- Generator: Adobe Illustrator 29.2.1, SVG Export Plug-In . SVG Version: 2.1.0 Build 116)  -->
  <defs>
    <style>
      .st0 {
        fill: #aa6100;
      }

      .st1 {
        fill: #fff;
      }

      .st2 {
        fill: #6dc82a;
      }

      .st3 {
        fill: #5eac24;
      }

      .st4 {
        fill: #91dc5a;
      }

      .st5 {
        stroke: #5eac24;
      }

      .st5, .st6 {
        fill: none;
        stroke-linecap: round;
        stroke-linejoin: round;
        stroke-width: 1.5px;
      }

      .st7 {
        fill: #cc7400;
      }

      .st6 {
        stroke: #4e901e;
      }
    </style>
  </defs>
  <circle class="st1" cx="48.9" cy="48.9" r="48"/>
  <g id="Symbol_2_0_Layer0_0_FILL">
    <path class="st2" d="M45.2,36.7c.4-1.3.9-2.6,1.4-3.8.5-1.1,1-2.1,1.5-3.1-3.7-6.2-9.2-10-16.4-11.3-2.1-.4-3.7-.4-4.6,0-.9.4-1.2,1.5-.9,3.4,2.1,11.1,7.9,18.2,17.5,21.1,0,0,0,0,0,0,.4-2.2.9-4.3,1.5-6.3l-1.3-1.2h-6.4,6.4l-5.3-5.1h-6.7,6.7l-7.9-7.6,7.9,7.6-1.2-6.2,1.2,6.2,5.3,5.1-1.2-6.5,1.2,6.5,1.3,1.2h0Z"/>
    <path class="st3" d="M48.2,39.6c0-.3.2-.6.2-.9.5-1.7,1-3.3,1.7-4.8-.6-1.5-1.3-2.8-2-4-.5,1-1.1,2-1.5,3.1-.5,1.2-1,2.4-1.4,3.8l2.1,2-2.1-2c-.6,1.9-1.1,4-1.5,6.3,0,0,0,0,0,0,1.1.3,2.3.6,3.6.9.3-1.5.6-3,.9-4.3Z"/>
    <path class="st4" d="M73.1,18.9c-.6-.3-1.6-.3-2.8-.2-.6,0-1.2.1-1.9.2-8.6,1.6-14.7,6.6-18.3,15-.6,1.5-1.2,3.1-1.7,4.8,0,.3-.2.6-.2.9-.4,1.4-.7,2.8-.9,4.3-.6,3.5-1,7.5-1,11.8h4.2c-.2-3.8.2-7.5,1.1-11.2.5,0,1-.2,1.5-.2,11.6-2.2,18.6-9.5,20.9-21.9.4-1.9,0-3.1-.9-3.4M56.5,35.5h6.4-6.4l-5.2,5,5.2-5,1.2-6.5-1.2,6.5,5.3-5.1,1.2-6.2-1.2,6.2,7.9-7.6-7.9,7.6h6.7-6.7s-5.3,5.1-5.3,5.1Z"/>
  </g>
  <path id="Symbol_2_0_Layer0_0_1_STROKES" class="st6" d="M47.3,38.7l-2.1-2M37.6,35.5h6.4l-5.3-5.1h-6.7M30.8,22.8l7.9,7.6-1.2-6.2M42.8,29l1.2,6.5,1.3,1.2"/>
  <path id="Symbol_2_0_Layer0_0_2_STROKES" class="st5" d="M68.5,30.4h-6.7l-5.3,5.1h6.4M51.4,40.5l5.2-5,1.2-6.5M63,24.2l-1.2,6.2,7.9-7.6"/>
  <g id="Symbol_3_0_Layer0_0_FILL">
    <path class="st0" d="M28.9,60c0-.2,0-.5-.2-.6-.2-.2-.4-.3-.6-.3s-.5,0-.6.3-.3.4-.3.6,0,.5.3.6.4.3.6.3.5,0,.6-.3.2-.4.2-.6M33.3,55.4c0-.5-.2-1-.6-1.4s-.8-.6-1.4-.6-1,.2-1.4.6-.6.8-.6,1.4.2,1,.6,1.4.8.6,1.4.6,1-.2,1.4-.6c.4-.4.6-.8.6-1.4M55.1,59.2c1.2,0,2.3.2,3.4.5-.4-.7-1-1.3-1.5-1.9-2.3-2.3-5.2-3.5-8.5-3.5s-6.1,1.2-8.5,3.5c-1.1,1.1-1.9,2.3-2.5,3.6-.4,0-.8,0-1.2,0-2.5,0-4.7.9-6.4,2.7-1.1,1.1-1.8,2.3-2.2,3.6-.6-.3-1.4-.5-2.1-.5-1.3,0-2.5.5-3.5,1.4-1,.9-1.4,2.1-1.4,3.4s.5,2.5,1.4,3.4c1,.9,2.1,1.4,3.5,1.4s2.4-.4,3.3-1.3c.3.4.7.9,1.1,1.3,1.8,1.8,3.9,2.7,6.4,2.7s4.7-.9,6.4-2.7c.7.4,1.5.7,2.3,1-.5-.7-.9-1.5-1.2-2.3-.5-1.3-.8-2.8-.8-4.3s.4-3.7,1.2-5.2c.3-.5.6-1.1.9-1.6.4-.6.9-1.2,1.4-1.7,2.3-2.3,5.2-3.5,8.5-3.5M54.9,68.3c0-.5-.2-1-.6-1.4s-.8-.6-1.4-.6-1,.2-1.3.6c0,0,0,0,0,0-.4.4-.6.8-.6,1.4s0,.4,0,.6c0,.3.2.6.5.8.4.4.8.6,1.4.6s1-.2,1.4-.6c.4-.4.6-.8.6-1.4M49.3,74.1c0-.2,0-.4-.2-.6-.2-.2-.4-.3-.6-.3s-.5,0-.6.3c-.2.2-.3.4-.3.6s0,.4.3.6c.2.2.4.3.6.3s.5,0,.6-.3c.2-.2.2-.4.2-.6M47.5,67.5c0,0,0-.2,0-.2s-.1,0-.2,0-.2,0-.2,0c0,0,0,.1,0,.2s0,.2,0,.2.1,0,.2,0,.2,0,.2,0c0,0,0-.1,0-.2M51.8,63.1c0-.2,0-.5-.2-.6-.2-.2-.4-.3-.6-.3s-.5,0-.6.3c-.2.2-.3.4-.3.6s0,.5.3.6c.2.2.4.3.6.3s.5,0,.6-.3c.2-.2.2-.4.2-.6M72.2,74.7c0,0,0-.2,0-.2s-.1,0-.2,0-.2,0-.2,0,0,.1,0,.2,0,.2,0,.2.1,0,.2,0,.2,0,.2,0,0-.1,0-.2M63.6,73.3c0-.5-.2-1-.6-1.4s-.8-.6-1.4-.6-1,.2-1.4.6-.6.8-.6,1.4.2,1,.6,1.4.8.6,1.4.6,1-.2,1.4-.6c.4-.4.6-.8.6-1.4M61.2,66.1c0-.2,0-.4-.2-.6-.1-.1-.3-.2-.5-.2,0,0-.1,0-.2,0-.2,0-.5,0-.6.3-.2.2-.3.4-.3.6s0,.4.3.6c.2.2.4.3.6.3s.1,0,.2,0c.2,0,.3-.1.4-.2.2-.2.2-.4.2-.6M68.3,69.6c-.2,0-.4,0-.6.3-.2.2-.3.4-.3.6s0,.4.3.6c.2.2.4.3.6.3s.5,0,.6-.3c.2-.2.2-.3.2-.6h0c0-.3,0-.5-.2-.7-.2-.2-.4-.3-.6-.3M65.7,56.1c0-.5-.2-1-.6-1.4s-.8-.6-1.4-.6-1,.2-1.4.6-.6.8-.6,1.4.2,1,.6,1.4.8.6,1.4.6,1-.2,1.4-.6c.4-.4.6-.8.6-1.4M70.1,61.3c0-.2,0-.5-.2-.6-.2-.2-.4-.3-.6-.3s-.4,0-.6.3c-.2.2-.3.4-.3.6s0,.5.3.6c.2.2.4.3.6.3s.5,0,.6-.3.2-.4.2-.6M71.5,60.5c0,0,0-.1,0-.2s0-.2,0-.2-.1,0-.2,0-.2,0-.2,0,0,.1,0,.2,0,.2,0,.2c0,0,.1,0,.2,0s.2,0,.2,0Z"/>
    <path class="st7" d="M60.1,61.1c-.2,0-.5,0-.7,0-.2-.5-.5-1-.8-1.5-1.1-.3-2.2-.5-3.4-.5-3.3,0-6.1,1.2-8.5,3.5-.5.5-1,1.1-1.4,1.7-.3.5-.7,1-.9,1.6-.8,1.6-1.2,3.3-1.2,5.2s.3,3,.8,4.3c.3.8.7,1.6,1.2,2.3,1.1.3,2.2.5,3.4.5,2,0,3.9-.4,5.5-1.3,1.7,1.5,3.7,2.3,6.1,2.3s4.7-.9,6.4-2.7c.4-.4.8-.9,1.2-1.4,0,0,.2.2.2.2.9.9,2.1,1.4,3.4,1.4s2.5-.5,3.4-1.4c.9-.9,1.4-2.1,1.4-3.4s-.5-2.5-1.4-3.4c-.9-.9-2.1-1.4-3.4-1.4s-1.8.2-2.5.7c-.4-1.5-1.2-2.9-2.4-4.1-1.8-1.8-3.9-2.7-6.4-2.7M67.7,69.8c.2-.2.4-.3.6-.3s.5,0,.6.3c.2.2.2.3.2.6h0c0,.3,0,.5-.2.7s-.4.3-.6.3-.4,0-.6-.3c-.2-.2-.3-.4-.3-.6s0-.4.3-.6M60.9,65.5c.2.2.2.4.2.6s0,.4-.2.6c-.1.1-.3.2-.4.2,0,0-.1,0-.2,0-.2,0-.5,0-.6-.3-.2-.2-.3-.4-.3-.6s0-.4.3-.6c.2-.2.4-.3.6-.3s.1,0,.2,0c.2,0,.3.1.5.2M63,71.9c.4.4.6.8.6,1.4s-.2,1-.6,1.4-.8.6-1.4.6-1-.2-1.4-.6-.6-.8-.6-1.4.2-1,.6-1.4.8-.6,1.4-.6,1,.2,1.4.6M72.1,74.5c0,0,0,.1,0,.2s0,.2,0,.2-.1,0-.2,0-.2,0-.2,0,0-.1,0-.2,0-.2,0-.2.1,0,.2,0,.2,0,.2,0M51.5,62.5c.2.2.2.4.2.6s0,.5-.2.6c-.2.2-.4.3-.6.3s-.5,0-.6-.3c-.2-.2-.3-.4-.3-.6s0-.5.3-.6c.2-.2.4-.3.6-.3s.5,0,.6.3M47.5,67.3c0,0,0,.1,0,.2s0,.2,0,.2-.1,0-.2,0-.2,0-.2,0c0,0,0-.1,0-.2s0-.2,0-.2.1,0,.2,0,.2,0,.2,0M49.1,73.5c.2.2.2.4.2.6s0,.4-.2.6c-.2.2-.4.3-.6.3s-.5,0-.6-.3c-.2-.2-.3-.4-.3-.6s0-.4.3-.6c.2-.2.4-.3.6-.3s.5,0,.6.3M54.3,66.9c.4.4.6.8.6,1.4s-.2,1-.6,1.4-.8.6-1.4.6-1-.2-1.4-.6c-.2-.2-.4-.5-.5-.8,0-.2,0-.4,0-.6,0-.5.2-1,.6-1.4,0,0,0,0,0,0,.4-.4.8-.6,1.3-.6s1,.2,1.4.6Z"/>
  </g>
  <g>
    <polygon points="12.3 40.5 12.3 53.9 13.9 53.9 13.9 40.1 12.3 40.4 12.3 40.5"/>
    <polygon points="15.9 53.7 17.5 53.7 17.5 44.3 15.9 44.7 15.9 53.7"/>
    <path d="M16.8,40.2c-.6,0-1.1.5-1.1,1.1s.6,1.1,1.1,1.1,1-.5,1-1.1-.4-1.1-1-1.1Z"/>
    <path d="M23.9,53.7h0l-.2-1.2c-.3.2-.4.3-1.1.3s-1-.6-1-2.2v-4.8h2.1v-1.2h-2.1v-2.4h-1.1l-.5,2.4h-1.2v1.2h1.1v5c0,2.4,1,3.2,2.2,3.2s1.3,0,1.7-.3h.1Z"/>
    <path d="M25.4,50.8c0,2.4,1,3.2,2.2,3.2s1.3,0,1.7-.3h0l-.2-1.2c-.3.2-.4.3-1.1.3s-1-.6-1-2.2v-4.8h2.1v-1.2h-2.1v-2.4h-1.1l-.5,2.4h-1.2v1.2h1.1v5h.1Z"/>
    <polygon points="30.4 40.4 30.4 40.5 30.4 53.5 30.4 53.9 32 53.9 32 53.4 32 40.1 30.4 40.4"/>
    <path d="M36.9,44.4c-2.1,0-3.4,1.8-3.4,4.8s1.5,4.8,3.6,4.8,1.8-.3,2.4-.7l-.3-1.2c-.5.4-.5.6-1.8.6s-2.2-1.2-2.2-3.3h4.6l.2-.4c0-2.8-1-4.6-3.1-4.6ZM35.3,48.2c.2-1.6.8-2.5,1.7-2.5s1.5.8,1.5,2.5h-3.2Z"/>
    <path d="M49.7,51.5c0-1.1-.6-2.1-1.5-2.6l-1.5-.8h0c-.5-.3-.7-.7-.7-1.3s.3-1,1.1-1.2h.3c.6,0,1.4.2,1.9.5l.2-1.3c-.5-.3-.5-.5-2.2-.5h0c-1.8,0-2.9,1.4-2.9,2.5s.6,2,1.6,2.6l.8.4.6.4c.5.3.8.6.8,1.3s-.7,1.2-1.4,1.2-.2,0-.2,0c-.7,0-1.4-.3-2.1-.7l-.2,1.2c.5.4.9.7,2.2.8h.5c1.7,0,2.9-1.4,2.9-2.5Z"/>
    <path d="M51.1,46.5v11.2h1.6v-4.2c.5.5-.5.5,1.6.5s3.5-1.8,3.5-4.9h0c0-3-1.2-4.8-2.9-4.8s-1.6.4-2.2,1.2l-.2-1h-1.4s0,2,0,2ZM52.7,46.8c.5-.7.5-1.1,1.6-1.1s1.8,1.2,1.8,3.4h0c0,2.3-.8,3.7-2,3.7s-1-.2-1.4-.5c0,0,0-5.5,0-5.5Z"/>
    <path d="M63.8,46.2l.3-1.3c-.3-.3-.3-.5-1.1-.5s-1.4.7-2,1.8l-.2-1.8-1.4.2v9.3h1.6v-6.5c.5-.9,1.1-1.5,1.7-1.5s.9,0,1.1.3Z"/>
    <path d="M68,44.4c-2.1,0-3.5,1.9-3.5,4.8h0c0,2.9,1.4,4.8,3.5,4.8s3.5-1.9,3.5-4.8-1.5-4.8-3.6-4.8ZM68.1,52.7c-1.1,0-1.9-1.4-1.9-3.5s.6-3.5,1.8-3.5,1.9,1.4,1.9,3.5h0c0,2.1-.8,3.5-1.9,3.5h0Z"/>
    <path d="M77.6,44.5v7.2c-.6.5-1,1-1.8,1s-1.2-.7-1.2-2.6v-5.6h-1.6v5.9c0,2.5,1.2,3.6,2.2,3.6s1.8-.5,2.5-1.1l.2,1h1.4v-9.3h0c0,0-1.6,0-1.6-.1Z"/>
    <path d="M85.4,52.5c-.3.2-.4.3-1.1.3s-1-.6-1-2.2v-4.8h2.1v-1.2h-2.1v-2.4h-1.1l-.5,2.4h-1.2v1.2h1.1v5c0,2.4,1,3.2,2.2,3.2s1.3,0,1.7-.3h0l-.2-1.2Z"/>
  </g>
</svg>